<svg id="svg" version="1.1" xmlns="http://www.w3.org/2000/svg" xmlns:xlink="http://www.w3.org/1999/xlink" width="400" height="390.9090909090909" viewBox="0, 0, 400,390.9090909090909"><g id="svgg"><path id="path0" d="M168.787 48.743 C 168.642 48.888,168.524 97.066,168.524 155.805 L 168.524 262.603 169.813 263.853 C 171.258 265.253,172.209 265.435,172.778 264.418 C 173.136 263.779,175.069 263.721,202.221 263.539 L 231.281 263.343 231.281 156.012 L 231.281 48.680 200.165 48.580 C 183.052 48.525,168.932 48.599,168.787 48.743 M168.787 289.603 C 168.642 289.748,168.524 301.186,168.524 315.021 L 168.524 340.176 200.003 340.176 L 231.482 340.176 231.381 314.858 L 231.281 289.541 200.165 289.440 C 183.052 289.385,168.932 289.459,168.787 289.603 " stroke="none" fill="#fcfbfb" fill-rule="evenodd"></path><path id="path1" d="M3.988 1.642 C 3.446 2.184,3.374 2.992,3.841 3.281 C 4.018 3.391,4.150 3.104,4.135 2.644 C 4.115 2.075,4.417 1.720,5.083 1.530 C 5.905 1.295,5.933 1.245,5.259 1.212 C 4.818 1.191,4.246 1.384,3.988 1.642 M6.712 1.516 C 6.295 1.780,6.320 1.896,6.835 2.093 C 7.193 2.231,7.356 2.539,7.202 2.788 C 7.047 3.039,7.324 3.536,7.834 3.920 C 9.258 4.994,9.381 7.939,8.039 8.818 C 6.775 9.647,6.767 10.572,8.016 11.657 C 9.324 12.795,9.324 14.541,8.016 15.570 C 6.775 16.547,6.775 17.471,8.016 18.447 C 8.716 18.998,8.993 19.593,8.993 20.547 C 8.993 21.536,8.741 22.043,8.016 22.519 C 6.768 23.336,6.768 24.438,8.016 25.256 C 8.733 25.726,8.993 26.242,8.993 27.192 C 8.993 28.107,8.707 28.712,8.016 29.256 C 6.758 30.245,6.779 31.095,8.088 32.221 L 9.137 33.123 8.088 33.811 C 6.777 34.670,6.754 35.585,8.016 36.682 C 9.324 37.819,9.324 39.566,8.016 40.595 C 6.775 41.571,6.775 42.495,8.016 43.472 C 8.707 44.015,8.993 44.620,8.993 45.536 C 8.993 46.486,8.733 47.002,8.016 47.471 C 6.751 48.300,6.771 49.465,8.064 50.312 L 9.089 50.984 8.064 51.866 L 7.038 52.748 7.038 76.183 L 7.038 99.617 8.016 100.257 C 9.375 101.148,9.375 103.260,8.016 104.329 C 6.782 105.299,6.782 105.977,8.016 107.136 C 9.302 108.345,9.302 110.000,8.016 111.119 C 6.774 112.199,6.774 113.129,8.016 113.943 C 9.388 114.842,9.388 117.025,8.016 117.925 C 6.838 118.696,6.751 119.853,7.820 120.521 C 8.819 121.145,8.819 122.061,7.820 122.685 C 7.052 123.165,7.038 123.597,7.038 147.759 L 7.038 172.344 8.016 172.985 C 9.375 173.875,9.375 175.987,8.016 177.056 C 6.775 178.032,6.775 178.957,8.016 179.933 C 8.662 180.441,8.993 181.091,8.993 181.849 C 8.993 182.586,8.643 183.301,8.016 183.846 C 7.478 184.314,7.038 184.996,7.038 185.363 C 7.038 185.729,7.478 186.318,8.016 186.670 C 9.375 187.561,9.375 189.672,8.016 190.741 C 6.834 191.671,6.779 192.411,7.820 193.353 C 8.250 193.742,8.602 194.255,8.602 194.492 C 8.602 194.730,8.250 195.144,7.820 195.413 C 7.052 195.893,7.038 196.325,7.038 220.522 L 7.038 245.143 8.016 245.784 C 9.369 246.671,9.369 248.719,8.016 249.784 C 7.478 250.206,7.038 250.854,7.038 251.222 C 7.038 251.590,7.478 252.237,8.016 252.660 C 9.324 253.689,9.324 255.436,8.016 256.574 C 6.774 257.653,6.774 258.584,8.016 259.397 C 9.375 260.288,9.375 262.399,8.016 263.469 C 6.783 264.438,6.786 264.993,8.034 266.295 L 9.030 267.335 8.034 267.987 L 7.038 268.640 7.038 293.255 L 7.038 317.871 8.016 318.511 C 9.369 319.398,9.369 321.446,8.016 322.511 C 7.478 322.934,7.038 323.581,7.038 323.949 C 7.038 324.317,7.478 324.965,8.016 325.388 C 9.324 326.417,9.324 328.163,8.016 329.301 C 6.774 330.380,6.774 331.311,8.016 332.124 C 9.375 333.015,9.375 335.127,8.016 336.196 C 6.764 337.180,6.778 338.035,8.064 339.141 L 9.089 340.023 8.064 340.695 L 7.038 341.367 7.038 364.965 C 7.038 377.944,7.148 389.113,7.283 389.785 L 7.527 391.007 202.004 391.007 L 396.481 391.007 396.481 390.029 C 396.481 389.492,396.295 389.052,396.067 389.052 C 395.839 389.052,395.743 389.198,395.853 389.376 C 396.021 389.648,395.519 389.676,394.100 389.475 C 392.987 389.318,392.962 385.317,392.962 210.975 L 392.962 34.499 391.984 33.858 C 390.625 32.967,390.625 30.856,391.984 29.786 C 393.217 28.817,393.214 28.262,391.966 26.960 L 390.970 25.921 391.966 25.268 C 393.458 24.290,393.426 21.117,391.912 20.126 L 390.863 19.438 391.927 18.523 L 392.991 17.607 392.945 9.922 C 392.912 4.452,393.030 2.155,393.354 1.954 C 393.671 1.759,393.611 1.597,393.158 1.423 C 392.170 1.044,7.311 1.136,6.712 1.516 M394.917 1.510 C 395.593 1.716,395.884 2.076,395.862 2.677 C 395.839 3.288,395.952 3.422,396.244 3.130 C 396.857 2.518,396.016 1.385,394.877 1.290 C 393.940 1.211,393.940 1.211,394.917 1.510 M179.506 42.299 L 180.737 41.000 181.857 42.299 L 182.977 43.597 184.090 42.277 L 185.203 40.957 185.954 41.904 C 187.196 43.470,187.578 43.513,188.733 42.217 L 189.813 41.005 190.906 42.301 L 191.999 43.597 193.119 42.299 L 194.239 41.000 195.470 42.299 L 196.701 43.597 197.797 42.273 L 198.894 40.949 199.767 42.176 L 200.640 43.402 217.915 43.405 L 235.191 43.408 236.852 45.100 L 238.514 46.792 238.514 156.925 L 238.514 267.058 236.950 268.622 L 235.386 270.186 202.198 270.186 C 173.175 270.186,168.950 270.112,168.524 269.599 C 167.899 268.846,166.401 268.846,165.647 269.599 C 164.845 270.401,164.820 270.391,163.050 268.622 L 161.486 267.058 161.486 156.872 C 161.486 71.693,161.592 46.580,161.955 46.217 C 162.213 45.959,162.961 45.740,163.617 45.731 C 164.449 45.720,165.099 45.365,165.769 44.558 C 166.711 43.422,166.794 43.402,170.532 43.402 L 174.336 43.402 175.209 42.176 L 176.082 40.949 177.178 42.273 L 178.274 43.597 179.506 42.299 M243.620 44.989 L 245.207 46.576 243.634 48.149 C 242.769 49.014,241.879 49.609,241.656 49.471 C 241.215 49.198,241.088 44.086,241.512 43.662 C 241.901 43.273,241.910 43.279,243.620 44.989 M158.553 47.703 L 158.553 49.462 156.794 49.462 C 155.084 49.462,155.031 49.425,154.909 48.154 C 154.707 46.047,155.012 45.687,156.888 45.823 L 158.553 45.943 158.553 47.703 M244.976 275.677 C 245.343 276.270,244.350 277.351,243.875 276.876 C 243.436 276.437,243.777 275.269,244.344 275.269 C 244.553 275.269,244.838 275.452,244.976 275.677 M158.574 278.040 C 158.977 278.692,158.071 279.440,157.532 278.900 C 157.080 278.449,157.363 277.615,157.967 277.615 C 158.156 277.615,158.430 277.806,158.574 278.040 M158.574 282.732 C 158.977 283.384,158.071 284.132,157.532 283.592 C 157.080 283.141,157.363 282.307,157.967 282.307 C 158.156 282.307,158.430 282.498,158.574 282.732 M170.021 282.788 C 170.286 283.052,171.685 283.401,173.130 283.562 C 176.363 283.924,176.221 283.922,178.011 283.632 C 178.861 283.494,179.700 283.573,179.996 283.819 C 180.368 284.128,180.852 284.116,181.750 283.777 C 182.717 283.412,183.269 283.413,184.246 283.782 C 185.075 284.095,185.632 284.124,185.888 283.868 C 186.101 283.654,186.821 283.480,187.488 283.480 C 188.154 283.480,188.874 283.654,189.088 283.868 C 189.344 284.124,189.897 284.096,190.720 283.786 C 191.691 283.419,192.253 283.420,193.273 283.789 C 194.902 284.378,196.935 284.401,197.286 283.834 C 197.452 283.565,198.148 283.502,199.166 283.665 C 200.656 283.904,201.409 283.926,205.572 283.850 C 206.378 283.836,207.801 283.942,208.734 284.087 C 209.801 284.253,210.591 284.189,210.865 283.915 C 211.406 283.374,213.749 283.342,214.076 283.871 C 214.407 284.405,216.479 284.363,218.066 283.789 C 219.086 283.420,219.649 283.419,220.619 283.786 C 221.442 284.096,221.995 284.124,222.252 283.868 C 222.465 283.654,223.074 283.480,223.606 283.480 C 224.137 283.480,224.904 283.179,225.310 282.812 C 225.907 282.272,226.174 282.235,226.709 282.619 C 228.011 283.554,228.497 283.604,229.676 282.928 C 230.859 282.249,230.880 282.252,231.677 283.252 C 232.250 283.970,232.855 284.262,233.770 284.262 C 234.770 284.262,235.442 284.647,236.786 285.991 L 238.514 287.719 238.514 314.862 L 238.514 342.005 235.722 344.870 L 232.930 347.735 231.812 346.399 L 230.694 345.064 229.541 346.432 L 228.389 347.801 227.261 346.459 L 226.133 345.118 225.026 346.362 L 223.918 347.605 197.601 347.605 L 171.284 347.605 170.440 348.747 C 169.360 350.208,168.524 349.913,168.524 348.068 C 168.524 346.807,168.156 346.305,165.005 343.262 L 161.486 339.865 161.486 314.632 L 161.486 289.398 160.310 288.561 L 159.135 287.724 160.866 285.993 C 162.556 284.303,162.657 284.262,165.125 284.262 C 167.389 284.262,167.719 284.160,168.292 283.284 C 169.013 282.185,169.328 282.094,170.021 282.788 M244.975 291.705 C 245.112 291.928,244.513 292.822,243.643 293.692 C 242.773 294.562,241.879 295.161,241.656 295.023 C 241.211 294.748,241.095 291.977,241.512 291.561 C 241.928 291.144,244.699 291.260,244.975 291.705 M235.734 348.531 C 236.070 348.935,236.046 349.174,235.638 349.513 C 235.009 350.035,233.966 349.103,234.398 348.404 C 234.742 347.848,235.204 347.892,235.734 348.531 " stroke="none" fill="#fc243c" fill-rule="evenodd"></path><path id="path2" d="M167.580 47.720 C 166.953 47.907,166.296 48.288,166.119 48.566 C 165.606 49.375,165.701 262.148,166.215 263.227 C 166.450 263.721,167.161 264.540,167.794 265.047 L 168.945 265.969 201.074 265.907 C 223.267 265.864,233.359 265.715,233.708 265.426 C 234.288 264.945,234.465 49.488,233.886 48.575 C 233.713 48.303,232.969 47.907,232.233 47.696 C 230.552 47.214,169.196 47.237,167.580 47.720 M231.281 156.012 L 231.281 263.343 202.221 263.539 C 175.069 263.721,173.136 263.779,172.778 264.418 C 172.209 265.435,171.258 265.253,169.813 263.853 L 168.524 262.603 168.524 155.805 C 168.524 97.066,168.642 48.888,168.787 48.743 C 168.932 48.599,183.052 48.525,200.165 48.580 L 231.281 48.680 231.281 156.012 M167.742 288.462 L 166.373 289.150 166.122 292.669 C 165.716 298.340,165.770 338.516,166.184 339.606 C 166.908 341.509,166.704 341.497,200.196 341.509 C 227.236 341.519,231.837 341.439,232.845 340.941 L 234.018 340.361 234.018 314.993 L 234.018 289.625 232.914 288.801 C 231.321 287.611,170.070 287.293,167.742 288.462 M231.381 314.858 L 231.482 340.176 200.003 340.176 L 168.524 340.176 168.524 315.021 C 168.524 301.186,168.642 289.748,168.787 289.603 C 168.932 289.459,183.052 289.385,200.165 289.440 L 231.281 289.541 231.381 314.858 " stroke="none" fill="#fcbcc4" fill-rule="evenodd"></path><path id="path3" d="M4.765 1.938 C 4.853 2.906,4.598 3.519,4.106 3.519 C 3.585 3.519,3.519 25.307,3.519 197.263 L 3.519 391.007 4.790 391.007 L 6.061 391.007 6.027 197.382 C 6.002 51.318,5.883 3.720,5.542 3.607 C 5.230 3.503,5.270 3.276,5.673 2.873 C 6.472 2.075,6.404 1.601,5.501 1.669 C 5.086 1.701,4.755 1.822,4.765 1.938 M393.744 1.951 C 393.744 2.138,394.006 2.553,394.327 2.873 C 394.648 3.194,394.749 3.514,394.553 3.585 C 393.596 3.931,393.862 388.499,394.819 388.747 C 395.196 388.845,395.723 388.851,395.992 388.760 C 396.799 388.489,396.701 3.519,395.894 3.519 C 395.402 3.519,395.147 2.906,395.235 1.938 C 395.245 1.822,394.914 1.701,394.499 1.669 C 394.084 1.638,393.744 1.765,393.744 1.951 M165.280 47.231 L 163.832 48.713 163.832 156.829 L 163.832 264.944 165.415 266.490 L 166.997 268.035 198.838 268.146 C 230.578 268.257,230.681 268.254,231.369 267.451 C 231.749 267.008,232.764 266.457,233.625 266.227 C 234.486 265.996,235.411 265.628,235.679 265.408 C 236.068 265.089,236.168 242.896,236.168 156.825 L 236.168 48.644 234.685 47.196 L 233.203 45.748 199.965 45.748 L 166.728 45.748 165.280 47.231 M232.233 47.696 C 232.969 47.907,233.713 48.303,233.886 48.575 C 234.465 49.488,234.288 264.945,233.708 265.426 C 233.359 265.715,223.267 265.864,201.074 265.907 L 168.945 265.969 167.794 265.047 C 167.161 264.540,166.450 263.721,166.215 263.227 C 165.701 262.148,165.606 49.375,166.119 48.566 C 166.296 48.288,166.953 47.907,167.580 47.720 C 169.196 47.237,230.552 47.214,232.233 47.696 M170.413 285.403 C 169.889 285.815,168.805 286.276,168.004 286.426 C 166.096 286.784,165.723 287.572,165.485 291.753 C 165.331 294.437,165.130 295.330,164.560 295.845 C 163.391 296.904,163.440 321.680,164.614 322.685 C 165.044 323.054,165.396 323.593,165.396 323.885 C 165.396 324.176,165.044 324.733,164.614 325.122 C 163.899 325.769,163.832 326.326,163.832 331.615 L 163.832 337.400 165.034 339.181 C 165.695 340.160,166.618 341.160,167.087 341.404 C 167.555 341.647,168.252 342.174,168.637 342.575 C 169.308 343.275,170.618 343.304,201.107 343.304 L 232.877 343.304 234.523 341.627 L 236.168 339.951 236.168 314.843 L 236.168 289.736 234.644 288.212 C 233.805 287.373,232.537 286.560,231.825 286.403 C 231.112 286.247,230.040 285.757,229.442 285.315 L 228.354 284.511 227.446 285.364 C 226.324 286.418,225.925 286.430,225.024 285.435 C 224.635 285.005,224.107 284.653,223.851 284.653 C 223.595 284.653,223.068 285.005,222.678 285.435 C 222.289 285.865,221.761 286.217,221.505 286.217 C 221.249 286.217,220.722 285.865,220.332 285.435 C 219.943 285.005,219.503 284.653,219.354 284.653 C 219.205 284.653,218.678 285.005,218.182 285.435 C 217.631 285.913,216.719 286.217,215.837 286.217 C 214.890 286.217,214.150 285.948,213.685 285.435 C 213.296 285.005,212.768 284.653,212.512 284.653 C 212.256 284.653,211.728 285.005,211.339 285.435 C 210.379 286.497,208.056 286.473,206.677 285.388 L 205.624 284.560 204.742 285.388 C 203.560 286.498,200.985 286.524,200.000 285.435 C 199.611 285.005,199.083 284.653,198.827 284.653 C 198.571 284.653,198.043 285.005,197.654 285.435 C 196.705 286.484,194.615 286.451,193.145 285.364 L 191.991 284.511 191.083 285.364 C 189.961 286.418,189.561 286.430,188.661 285.435 C 188.272 285.005,187.744 284.653,187.488 284.653 C 187.232 284.653,186.704 285.005,186.315 285.435 C 185.926 285.865,185.398 286.217,185.142 286.217 C 184.886 286.217,184.358 285.865,183.969 285.435 C 183.579 285.005,183.139 284.653,182.990 284.653 C 182.842 284.653,182.314 285.005,181.818 285.435 C 180.715 286.392,180.856 286.396,179.460 285.364 L 178.306 284.511 177.397 285.364 C 176.275 286.418,175.876 286.430,174.976 285.435 C 174.050 284.412,171.694 284.396,170.413 285.403 M232.914 288.801 L 234.018 289.625 234.018 314.993 L 234.018 340.361 232.845 340.941 C 231.837 341.439,227.236 341.519,200.196 341.509 C 166.704 341.497,166.908 341.509,166.184 339.606 C 165.770 338.516,165.716 298.340,166.122 292.669 L 166.373 289.150 167.742 288.462 C 170.070 287.293,231.321 287.611,232.914 288.801 " stroke="none" fill="#dc4454" fill-rule="evenodd"></path><path id="path4" d="M6.345 1.418 C 6.938 1.593,6.900 1.730,6.036 2.531 C 5.415 3.106,5.226 3.501,5.524 3.601 C 5.892 3.724,5.985 46.118,5.947 196.522 C 5.898 386.821,5.916 391.007,6.790 391.007 C 7.117 391.007,7.204 384.510,7.120 366.276 L 7.006 341.544 8.034 340.720 L 9.062 339.896 8.050 339.100 C 6.776 338.098,6.765 337.180,8.016 336.196 C 9.375 335.127,9.375 333.015,8.016 332.124 C 6.774 331.311,6.774 330.380,8.016 329.301 C 9.324 328.163,9.324 326.417,8.016 325.388 C 7.478 324.965,7.038 324.317,7.038 323.949 C 7.038 323.581,7.478 322.934,8.016 322.511 C 9.369 321.446,9.369 319.398,8.016 318.511 L 7.038 317.871 7.038 293.255 L 7.038 268.640 8.034 267.987 L 9.030 267.335 8.034 266.295 C 6.786 264.993,6.783 264.438,8.016 263.469 C 9.375 262.399,9.375 260.288,8.016 259.397 C 6.774 258.584,6.774 257.653,8.016 256.574 C 9.324 255.436,9.324 253.689,8.016 252.660 C 6.775 251.684,6.775 250.760,8.016 249.784 C 9.369 248.719,9.369 246.671,8.016 245.784 L 7.038 245.143 7.038 220.522 C 7.038 196.325,7.052 195.893,7.820 195.413 C 8.250 195.144,8.602 194.730,8.602 194.492 C 8.602 194.255,8.250 193.742,7.820 193.353 C 6.779 192.411,6.834 191.671,8.016 190.741 C 9.375 189.672,9.375 187.561,8.016 186.670 C 6.774 185.856,6.774 184.926,8.016 183.846 C 9.324 182.709,9.324 180.962,8.016 179.933 C 7.478 179.510,7.038 178.863,7.038 178.495 C 7.038 178.126,7.478 177.479,8.016 177.056 C 9.375 175.987,9.375 173.875,8.016 172.985 L 7.038 172.344 7.038 147.759 C 7.038 123.597,7.052 123.165,7.820 122.685 C 8.819 122.061,8.819 121.145,7.820 120.521 C 6.751 119.853,6.838 118.696,8.016 117.925 C 9.388 117.025,9.388 114.842,8.016 113.943 C 6.774 113.129,6.774 112.199,8.016 111.119 C 9.302 110.000,9.302 108.345,8.016 107.136 C 6.782 105.977,6.782 105.299,8.016 104.329 C 9.375 103.260,9.375 101.148,8.016 100.257 L 7.038 99.617 7.038 76.183 L 7.038 52.748 8.064 51.866 L 9.089 50.984 8.064 50.312 C 6.771 49.465,6.751 48.300,8.016 47.471 C 9.369 46.584,9.369 44.536,8.016 43.472 C 7.478 43.049,7.038 42.401,7.038 42.033 C 7.038 41.665,7.478 41.018,8.016 40.595 C 8.662 40.087,8.993 39.437,8.993 38.679 C 8.993 37.942,8.643 37.227,8.016 36.682 C 6.754 35.585,6.777 34.670,8.088 33.811 L 9.137 33.123 8.088 32.221 C 6.779 31.095,6.758 30.245,8.016 29.256 C 8.707 28.712,8.993 28.107,8.993 27.192 C 8.993 26.242,8.733 25.726,8.016 25.256 C 6.768 24.438,6.768 23.336,8.016 22.519 C 9.375 21.628,9.375 19.517,8.016 18.447 C 6.775 17.471,6.775 16.547,8.016 15.570 C 8.662 15.062,8.993 14.412,8.993 13.654 C 8.993 12.918,8.643 12.203,8.016 11.657 C 6.767 10.572,6.775 9.647,8.039 8.818 C 9.295 7.995,9.262 4.969,7.987 4.035 C 7.567 3.727,7.234 3.019,7.234 2.432 C 7.234 1.667,7.020 1.357,6.452 1.299 C 5.861 1.238,5.835 1.267,6.345 1.418 M392.937 1.466 C 392.923 1.628,392.933 5.322,392.960 9.676 L 393.008 17.593 391.936 18.516 L 390.863 19.438 391.912 20.126 C 393.426 21.117,393.458 24.290,391.966 25.268 L 390.970 25.921 391.966 26.960 C 393.214 28.262,393.217 28.817,391.984 29.786 C 391.284 30.338,391.007 30.932,391.007 31.886 C 391.007 32.875,391.259 33.382,391.984 33.858 L 392.962 34.499 392.962 210.975 C 392.962 385.317,392.987 389.318,394.100 389.475 C 395.493 389.672,396.024 389.653,395.874 389.410 C 395.775 389.250,395.915 389.041,396.185 388.946 C 396.455 388.852,396.185 388.771,395.585 388.766 C 394.985 388.762,394.415 388.681,394.320 388.585 C 393.909 388.174,394.117 3.721,394.529 3.583 C 394.760 3.506,394.506 3.032,393.964 2.531 C 393.106 1.735,393.066 1.595,393.655 1.441 C 394.287 1.275,394.287 1.261,393.646 1.218 C 393.270 1.193,392.951 1.305,392.937 1.466 M175.209 42.176 L 174.336 43.402 170.532 43.402 C 166.794 43.402,166.711 43.422,165.769 44.558 C 165.099 45.365,164.449 45.720,163.617 45.731 C 162.961 45.740,162.213 45.959,161.955 46.217 C 161.592 46.580,161.486 71.693,161.486 156.872 L 161.486 267.058 163.050 268.622 C 164.820 270.391,164.845 270.401,165.647 269.599 C 166.401 268.846,167.899 268.846,168.524 269.599 C 168.950 270.112,173.175 270.186,202.198 270.186 L 235.386 270.186 236.950 268.622 L 238.514 267.058 238.514 156.925 L 238.514 46.792 236.852 45.100 L 235.191 43.408 217.915 43.405 L 200.640 43.402 199.767 42.176 L 198.894 40.949 197.797 42.273 L 196.701 43.597 195.470 42.299 L 194.239 41.000 193.119 42.299 L 191.999 43.597 190.906 42.301 L 189.813 41.005 188.733 42.217 C 187.578 43.513,187.196 43.470,185.954 41.904 L 185.203 40.957 184.090 42.277 L 182.977 43.597 181.857 42.299 L 180.737 41.000 179.506 42.299 L 178.274 43.597 177.178 42.273 L 176.082 40.949 175.209 42.176 M241.512 43.662 C 241.088 44.086,241.215 49.198,241.656 49.471 C 241.879 49.609,242.769 49.014,243.634 48.149 L 245.207 46.576 243.620 44.989 C 241.910 43.279,241.901 43.273,241.512 43.662 M155.003 46.274 C 154.266 48.196,154.977 49.462,156.794 49.462 L 158.553 49.462 158.553 47.703 L 158.553 45.943 156.888 45.823 C 155.704 45.737,155.159 45.868,155.003 46.274 M234.685 47.196 L 236.168 48.644 236.168 156.825 C 236.168 242.896,236.068 265.089,235.679 265.408 C 235.411 265.628,234.486 265.996,233.625 266.227 C 232.764 266.457,231.749 267.008,231.369 267.451 C 230.681 268.254,230.578 268.257,198.838 268.146 L 166.997 268.035 165.415 266.490 L 163.832 264.944 163.832 156.829 L 163.832 48.713 165.280 47.231 L 166.728 45.748 199.965 45.748 L 233.203 45.748 234.685 47.196 M243.729 275.882 C 243.381 276.787,244.150 277.385,244.742 276.671 C 245.243 276.067,245.016 275.269,244.344 275.269 C 244.135 275.269,243.858 275.545,243.729 275.882 M157.359 278.040 C 156.956 278.692,157.863 279.440,158.402 278.900 C 158.853 278.449,158.571 277.615,157.967 277.615 C 157.777 277.615,157.504 277.806,157.359 278.040 M157.359 282.732 C 156.956 283.384,157.863 284.132,158.402 283.592 C 158.853 283.141,158.571 282.307,157.967 282.307 C 157.777 282.307,157.504 282.498,157.359 282.732 M168.292 283.284 C 167.719 284.160,167.389 284.262,165.125 284.262 C 162.657 284.262,162.556 284.303,160.866 285.993 L 159.135 287.724 160.310 288.561 L 161.486 289.398 161.486 314.632 L 161.486 339.865 165.005 343.262 C 168.156 346.305,168.524 346.807,168.524 348.068 C 168.524 349.913,169.360 350.208,170.440 348.747 L 171.284 347.605 197.601 347.605 L 223.918 347.605 225.026 346.362 L 226.133 345.118 227.261 346.459 L 228.389 347.801 229.541 346.432 L 230.694 345.064 231.812 346.399 L 232.930 347.735 235.722 344.870 L 238.514 342.005 238.514 314.862 L 238.514 287.719 236.786 285.991 C 235.442 284.647,234.770 284.262,233.770 284.262 C 232.855 284.262,232.250 283.970,231.677 283.252 C 230.880 282.252,230.859 282.249,229.676 282.928 C 228.497 283.604,228.011 283.554,226.709 282.619 C 226.174 282.235,225.907 282.272,225.310 282.812 C 224.904 283.179,224.137 283.480,223.606 283.480 C 223.074 283.480,222.465 283.654,222.252 283.868 C 221.995 284.124,221.442 284.096,220.619 283.786 C 219.649 283.419,219.086 283.420,218.066 283.789 C 216.479 284.363,214.407 284.405,214.076 283.871 C 213.749 283.342,211.406 283.374,210.865 283.915 C 210.591 284.189,209.801 284.253,208.734 284.087 C 207.801 283.942,206.378 283.836,205.572 283.850 C 201.409 283.926,200.656 283.904,199.166 283.665 C 198.148 283.502,197.452 283.565,197.286 283.834 C 196.935 284.401,194.902 284.378,193.273 283.789 C 192.253 283.420,191.691 283.419,190.720 283.786 C 189.897 284.096,189.344 284.124,189.088 283.868 C 188.874 283.654,188.154 283.480,187.488 283.480 C 186.821 283.480,186.101 283.654,185.888 283.868 C 185.632 284.124,185.075 284.095,184.246 283.782 C 183.269 283.413,182.717 283.412,181.750 283.777 C 180.852 284.116,180.368 284.128,179.996 283.819 C 179.700 283.573,178.861 283.494,178.011 283.632 C 176.221 283.922,176.363 283.924,173.130 283.562 C 171.685 283.401,170.286 283.052,170.021 282.788 C 169.328 282.094,169.013 282.185,168.292 283.284 M174.976 285.435 C 175.876 286.430,176.275 286.418,177.397 285.364 L 178.306 284.511 179.460 285.364 C 180.856 286.396,180.715 286.392,181.818 285.435 C 182.314 285.005,182.842 284.653,182.990 284.653 C 183.139 284.653,183.579 285.005,183.969 285.435 C 184.358 285.865,184.886 286.217,185.142 286.217 C 185.398 286.217,185.926 285.865,186.315 285.435 C 186.704 285.005,187.232 284.653,187.488 284.653 C 187.744 284.653,188.272 285.005,188.661 285.435 C 189.561 286.430,189.961 286.418,191.083 285.364 L 191.991 284.511 193.145 285.364 C 194.615 286.451,196.705 286.484,197.654 285.435 C 198.043 285.005,198.571 284.653,198.827 284.653 C 199.083 284.653,199.611 285.005,200.000 285.435 C 200.985 286.524,203.560 286.498,204.742 285.388 L 205.624 284.560 206.677 285.388 C 208.056 286.473,210.379 286.497,211.339 285.435 C 211.728 285.005,212.256 284.653,212.512 284.653 C 212.768 284.653,213.296 285.005,213.685 285.435 C 214.150 285.948,214.890 286.217,215.837 286.217 C 216.719 286.217,217.631 285.913,218.182 285.435 C 218.678 285.005,219.205 284.653,219.354 284.653 C 219.503 284.653,219.943 285.005,220.332 285.435 C 220.722 285.865,221.249 286.217,221.505 286.217 C 221.761 286.217,222.289 285.865,222.678 285.435 C 223.068 285.005,223.595 284.653,223.851 284.653 C 224.107 284.653,224.635 285.005,225.024 285.435 C 225.925 286.430,226.324 286.418,227.446 285.364 L 228.354 284.511 229.442 285.315 C 230.040 285.757,231.112 286.247,231.825 286.403 C 232.537 286.560,233.805 287.373,234.644 288.212 L 236.168 289.736 236.168 314.843 L 236.168 339.951 234.523 341.627 L 232.877 343.304 201.107 343.304 C 170.618 343.304,169.308 343.275,168.637 342.575 C 168.252 342.174,167.555 341.647,167.087 341.404 C 166.618 341.160,165.695 340.160,165.034 339.181 L 163.832 337.400 163.832 331.615 C 163.832 326.326,163.899 325.769,164.614 325.122 C 165.044 324.733,165.396 324.176,165.396 323.885 C 165.396 323.593,165.044 323.054,164.614 322.685 C 163.440 321.680,163.391 296.904,164.560 295.845 C 165.130 295.330,165.331 294.437,165.485 291.753 C 165.723 287.572,166.096 286.784,168.004 286.426 C 168.805 286.276,169.889 285.815,170.413 285.403 C 171.694 284.396,174.050 284.412,174.976 285.435 M241.512 291.561 C 241.095 291.977,241.211 294.748,241.656 295.023 C 241.879 295.161,242.773 294.562,243.643 293.692 C 244.513 292.822,245.112 291.928,244.975 291.705 C 244.699 291.260,241.928 291.144,241.512 291.561 M234.398 348.404 C 233.966 349.103,235.009 350.035,235.638 349.513 C 236.046 349.174,236.070 348.935,235.734 348.531 C 235.204 347.892,234.742 347.848,234.398 348.404 " stroke="none" fill="#f42c44" fill-rule="evenodd"></path></g></svg>